<svg xmlns="http://www.w3.org/2000/svg" id="Capa_1" data-name="Capa 1" viewBox="0 0 1792.8 406.08"><defs><style>.cls-1{fill:#018161;}</style></defs><path class="cls-1" d="M86.29,227.3V361.48H38.53V44.86H86.29V179.29H143.9V44.86h47.76V361.48H143.9V227.3Z"></path><path class="cls-1" d="M459.76,361.48,403.16,44.86h50.06L493,291.66l40-246.8h50.09L525.46,361.48Z"></path><path class="cls-1" d="M698.3,44.86q39.93,0,58.63,22,16.43,19.22,16.42,53.57v46q0,33.61-25.52,56.86L783.2,361.48H731.55L702.6,242.21H670.75V361.48H623V44.86Zm28.56,76.31q0-27.54-27.3-27.55H670.75V195h28.81a26.1,26.1,0,0,0,19.33-8.08,26.74,26.74,0,0,0,8-19.46Z"></path><path class="cls-1" d="M871.89,361.48H824.13V44.86h47.76Z"></path><path class="cls-1" d="M1069.75,282.64q.49,33.11-17.19,56.6-11.62,15.92-32.85,22.49a89.47,89.47,0,0,1-26.53,3.54q-28,0-46.49-13.9-15.42-11.37-24.39-31t-10.49-44.85l45.48-3.28q3,27.69,14.67,40.13,8.58,9.4,19.71,8.89,15.66-.51,25-15.43,4.8-7.33,4.8-21,0-19.72-17.94-39.2-14.14-13.41-42.45-40.22-23.76-23-33.61-41.22a95.42,95.42,0,0,1-10.61-44.52q0-43.24,29-65.5,17.94-13.41,44.48-13.41,25.51,0,43.72,11.37A65.75,65.75,0,0,1,1057,77q8.71,15.92,10.49,36.64l-45.73,8.34q-2-19.46-11.13-30.32-6.57-7.83-18.94-7.84-13.15,0-20,11.62-5.55,9.36-5.56,23.25,0,21.74,18.7,44.22,7.06,8.59,21.23,20.22,16.66,13.9,22,19.46,17.68,17.69,27.29,34.87a131.64,131.64,0,0,1,7.33,14.91Q1069.49,269.24,1069.75,282.64Z"></path><path class="cls-1" d="M1153.37,92.87h-50.79v-48h149.09v48h-50.53V361.48h-47.77Z"></path><path class="cls-1" d="M1337.84,361.48h-47.76V44.86h47.76Z"></path><path class="cls-1" d="M1428.3,261V361.48h-47.76V44.6h47.76v113l58.37-113h50.92l-65.37,129.25,76.66,187.63h-56.14l-50.15-128.65Z"></path><rect class="cls-1" x="234.36" y="44.6" width="135.95" height="48.01"></rect><rect class="cls-1" x="234.36" y="179.04" width="112.2" height="48.04"></rect><rect class="cls-1" x="234.36" y="313.47" width="135.95" height="48.01"></rect><polygon class="cls-1" points="1754.27 361.48 1701.21 44.86 1635.52 44.86 1581.69 361.48 1631.41 361.48 1637.12 325.71 1637.12 325.71 1651.6 233.81 1651.61 233.81 1668.11 117.38 1684.61 233.81 1684.61 233.81 1695.11 303.2 1704.05 361.48 1754.27 361.48"></polygon></svg>